<svg
    width="50"
    height="50"
    viewbox="0 0 50 50"
    fill="none"
    xmlns="http://www.w3.org/2000/svg"
>
    <rect width="50" height="50" rx="10" fill="white" />
    <path
    d="M12.11 36.06C10.29 36.06 9.38 35.86 9.38 35.46V16.02C9.38 15.34 9.69 15 10.31 15H15.59C18.55 15 20.68 15.61 21.98 16.83C23.3 18.05 23.96 19.82 23.96 22.14C23.96 24.06 23.34 25.82 22.1 27.42C21.48 28.22 20.57 28.86 19.37 29.34C18.17 29.82 16.77 30.06 15.17 30.06V35.43C15.17 35.67 14.79 35.84 14.03 35.94C13.29 36.02 12.65 36.06 12.11 36.06ZM15.17 20.22V24.96H15.56C16.26 24.96 16.85 24.74 17.33 24.3C17.81 23.86 18.05 23.24 18.05 22.44C18.05 21.64 17.88 21.07 17.54 20.73C17.22 20.39 16.64 20.22 15.8 20.22H15.17ZM35.4594 21.09C35.5394 20.93 36.0394 20.85 36.9594 20.85C39.9594 20.85 41.4194 20.96 41.3394 21.18L37.6794 28.77C40.1394 33.37 41.3694 35.67 41.3694 35.67C41.3694 35.79 40.7694 35.89 39.5694 35.97C38.3694 36.05 37.5194 36.09 37.0194 36.09C35.7594 36.09 35.0894 35.96 35.0094 35.7L33.3894 30.69L31.5294 35.91C31.4894 36.05 30.9194 36.12 29.8194 36.12C28.7194 36.12 27.7394 36.08 26.8794 36C26.0194 35.92 25.6294 35.82 25.7094 35.7L29.0994 28.8C26.7394 23.86 25.5594 21.38 25.5594 21.36C25.5594 21.24 25.8594 21.13 26.4594 21.03C27.0794 20.93 27.7694 20.88 28.5294 20.88C29.3094 20.88 30.0494 20.92 30.7494 21C31.4494 21.06 31.8394 21.15 31.9194 21.27L33.5094 26.13L35.4594 21.09Z"
    fill="#6366F1"
    />
</svg>